<?xml version="1.0" encoding="UTF-8"?>
<svg version="1.1" xmlns="http://www.w3.org/2000/svg" width="866" height="650">
<path d="M0 0 C285.78 0 571.56 0 866 0 C866 214.5 866 429 866 650 C580.22 650 294.44 650 0 650 C0 435.5 0 221 0 0 Z " fill="#FEFEFE" transform="translate(0,0)"/>
<path d="M0 0 C1.34731737 -0.00489575 2.69463053 -0.01108871 4.04193664 -0.01845789 C7.72488293 -0.03479423 11.40761427 -0.03255243 15.09058404 -0.02708292 C19.07028822 -0.02440487 23.04993612 -0.0389591 27.02961731 -0.05117798 C34.81929976 -0.0722022 42.60890774 -0.07677453 50.39861521 -0.07499009 C56.73315733 -0.07368084 63.06767629 -0.07749495 69.40221405 -0.08491516 C71.22909665 -0.08701443 73.05597925 -0.08911204 74.88286185 -0.09120798 C76.24694614 -0.09277327 76.24694614 -0.09277327 77.63858768 -0.09437019 C94.82673432 -0.11326075 112.01483826 -0.11222612 129.20299098 -0.10540086 C144.91059612 -0.09982747 160.61803806 -0.12064425 176.32560506 -0.15376133 C192.47045397 -0.18753498 208.61522478 -0.202662 224.76010966 -0.1980443 C233.81764455 -0.19580317 242.87502864 -0.20099037 251.93253326 -0.22593689 C259.64463876 -0.24699765 267.35651078 -0.25049491 275.06862602 -0.2316373 C278.99947266 -0.22250838 282.92988457 -0.22124819 286.86069679 -0.24199295 C290.46714753 -0.26081449 294.07281089 -0.2560766 297.67923269 -0.23344713 C299.5849399 -0.22733658 301.49067868 -0.24556366 303.39629674 -0.26498365 C317.55798811 -0.12078576 329.41018657 5.50180012 339.71600342 15.01940918 C351.39394996 27.21015976 354.67707204 41.41147879 354.80194092 57.66394043 C354.82740024 59.69495682 354.85371827 61.72596258 354.88079834 63.75695801 C354.89404144 64.81089752 354.90728455 65.86483704 354.92092896 66.95071411 C355.28518956 94.28848838 355.28518956 94.28848838 358.59100342 121.39440918 C358.78822998 122.50993164 358.98545654 123.6254541 359.18865967 124.77478027 C363.40712103 147.65109208 370.33575159 172.41532796 389.82928467 187.07800293 C396.6371492 191.54601222 403.77749086 193.40272951 411.59100342 195.39440918 C411.59100342 203.97440918 411.59100342 212.55440918 411.59100342 221.39440918 C409.61100342 221.97190918 407.63100342 222.54940918 405.59100342 223.14440918 C388.76970164 228.39992941 378.67181649 238.54501437 370.46600342 254.08190918 C362.38345091 270.87206493 358.93886201 289.04651569 356.59100342 307.39440918 C356.50670074 308.01576752 356.42239807 308.63712585 356.33554077 309.27731323 C355.53523055 315.65940325 355.42383278 321.98361027 355.38006592 328.41003418 C355.35199569 330.73686411 355.32333121 333.06368694 355.29412842 335.39050293 C355.25297978 339.01501245 355.21603998 342.63938947 355.18963623 346.26403809 C355.16178406 349.79213964 355.11592077 353.31966155 355.06756592 356.84753418 C355.06431305 357.91151428 355.06106018 358.97549438 355.05770874 360.07171631 C354.78290914 377.17477565 349.50562681 391.57968056 337.46600342 403.75769043 C333.49941971 407.39552195 329.41748628 410.04728395 324.59100342 412.39440918 C323.94131592 412.71925293 323.29162842 413.04409668 322.62225342 413.37878418 C317.15197989 415.92198152 311.79459612 416.51768769 305.8234148 416.52863026 C304.68963203 416.5330881 303.55584926 416.53754594 302.38770944 416.54213887 C301.15202256 416.54195451 299.91633567 416.54177015 298.64320374 416.5415802 C297.30942862 416.5448823 295.9756545 416.5486086 294.64188164 416.55272168 C290.98256304 416.56271005 287.32326083 416.56645334 283.66393054 416.56911099 C279.71490641 416.57302334 275.76589515 416.58260086 271.81687927 416.59132385 C262.28420978 416.61105973 252.75153927 416.62114981 243.21885446 416.63005164 C238.72693344 416.63443836 234.23501359 416.63980409 229.74309349 416.64504051 C214.80709357 416.66204823 199.87109437 416.67654254 184.93508625 416.68378925 C181.06168428 416.68569906 177.18828232 416.6876194 173.31488037 416.6895752 C172.35219961 416.69005894 171.38951885 416.69054268 170.39766594 416.69104107 C154.80171355 416.69934203 139.20583784 416.72468211 123.60991893 416.75715587 C107.58948852 416.79024108 91.56909707 416.80823925 75.54863232 416.81143349 C66.55708029 416.81359699 57.56564017 416.82232247 48.57412148 416.84789467 C40.91718607 416.86962145 33.26038977 416.87764228 25.60342703 416.86792789 C21.69922508 416.8633892 17.79531004 416.86524409 13.89114761 416.88468933 C10.31131345 416.90236474 6.73197455 416.90128844 3.1521348 416.88579204 C1.25573887 416.88230709 -0.64066253 416.89840944 -2.53698558 416.91539651 C-16.30479079 416.8123813 -28.06991089 411.53536618 -38.15899658 402.14440918 C-47.41857609 392.17426242 -53.46286672 379.05981031 -53.56671143 365.34240723 C-53.57697357 364.35914963 -53.58723572 363.37589203 -53.59780884 362.36283875 C-53.60511017 361.30462418 -53.6124115 360.24640961 -53.61993408 359.15612793 C-53.64806391 356.86640799 -53.67672853 354.57669457 -53.70587158 352.2869873 C-53.74660677 348.71611151 -53.78351969 345.14534931 -53.81036377 341.57434082 C-54.08739088 307.58359231 -56.24990626 267.18120498 -78.40899658 239.39440918 C-78.97618408 238.66222168 -79.54337158 237.93003418 -80.12774658 237.17565918 C-87.80840149 228.41701762 -99.4210614 224.14139298 -110.40899658 221.39440918 C-110.40899658 212.81440918 -110.40899658 204.23440918 -110.40899658 195.39440918 C-108.32587158 194.87878418 -106.24274658 194.36315918 -104.09649658 193.83190918 C-90.34634252 190.08508057 -80.48575061 181.63479585 -73.16680908 169.58972168 C-63.8626445 152.67681805 -59.15411645 134.40418028 -56.40899658 115.39440918 C-56.23980713 114.3480127 -56.07061768 113.30161621 -55.89630127 112.22351074 C-53.84140587 98.19214089 -54.05214207 84.09419713 -54.02813721 69.93933105 C-53.9693122 49.24469533 -53.14121824 30.5021948 -38.15899658 14.58190918 C-26.54430398 3.69807309 -15.66174067 -0.06744322 0 0 Z " fill="#504A99" transform="translate(282.40899658203125,116.6055908203125)"/>
<path d="M0 0 C0.77172043 -0.01265396 1.54344086 -0.02530792 2.33854675 -0.03834534 C3.57986862 -0.02080704 3.57986862 -0.02080704 4.8462677 -0.00291443 C5.73345993 -0.01006973 6.62065216 -0.01722504 7.534729 -0.02459717 C10.46307728 -0.04147653 13.38989092 -0.02206531 16.31819153 -0.00071716 C18.37160365 -0.00154688 20.42501571 -0.00401015 22.47842407 -0.00802612 C26.78841592 -0.01088488 31.09788847 0.00380812 35.40779114 0.03126526 C40.87878329 0.06506858 46.34883016 0.05942403 51.81986523 0.04060268 C56.06784638 0.02991741 60.31561603 0.03907838 64.56357765 0.0539875 C66.57698751 0.05910476 68.5904201 0.05876779 70.60382652 0.05244255 C93.2748341 0.00801515 115.89455245 2.80445114 132.79084778 19.41725159 C138.88762411 26.00270083 142.19184812 32.01637589 144.83772278 40.62818909 C145.06459778 41.2843219 145.29147278 41.94045471 145.52522278 42.61647034 C149.22516042 54.61557367 146.91695232 67.34041725 141.48225403 78.38209534 C134.65400731 90.37271625 125.05954844 99.13276836 111.83772278 103.62818909 C108.90022278 103.81568909 108.90022278 103.81568909 106.83772278 103.62818909 C106.83772278 104.28818909 106.83772278 104.94818909 106.83772278 105.62818909 C107.56475403 105.71455627 108.29178528 105.80092346 109.04084778 105.88990784 C125.95203567 108.25313794 139.48767348 115.9784211 149.83772278 129.62818909 C158.68453092 143.61541193 159.70685964 159.79317959 156.58772278 175.75709534 C154.16626678 185.02673159 150.21043792 192.50887971 143.83772278 199.62818909 C143.2421759 200.31654846 142.64662903 201.00490784 142.03303528 201.71412659 C132.81102007 211.70145426 120.81577644 216.55769788 107.83772278 219.62818909 C106.7928923 219.87647964 105.74806183 220.1247702 104.67156982 220.38058472 C92.90205588 222.88252795 81.45078528 223.0846851 69.45100403 223.06178284 C67.33350458 223.06635428 65.21600661 223.07166268 63.09851074 223.07766724 C58.69552005 223.08653444 54.29271145 223.08424279 49.88972473 223.07423401 C44.24955735 223.06266055 38.61000832 223.08311557 32.96992207 223.11215115 C28.61276277 223.13047598 24.25575343 223.13022967 19.89856529 223.12451363 C17.81774709 223.12436045 15.73691871 223.13040206 13.65613747 223.1428051 C10.75833799 223.15766956 7.86170615 223.14707719 4.96394348 223.12989807 C4.10938568 223.13956604 3.25482788 223.14923401 2.37437439 223.15919495 C-1.66977911 223.10894823 -3.67353663 222.93794587 -7.17016602 220.72183228 C-10.8001969 216.90678952 -10.31561936 213.42448661 -10.32290649 208.41094971 C-10.32799431 207.55113914 -10.33308213 206.69132857 -10.33832413 205.80546314 C-10.35409398 202.90742488 -10.36258555 200.00941164 -10.37101746 197.11134338 C-10.38055213 195.04036804 -10.39044312 192.96939431 -10.40066528 190.89842224 C-10.43209057 184.08310343 -10.45231938 177.26777225 -10.47087097 170.45240784 C-10.47416829 169.2940984 -10.47746562 168.13578896 -10.48086286 166.94237924 C-10.5116417 156.02494261 -10.53835788 145.10750331 -10.55528164 134.19003582 C-10.57720565 120.20928642 -10.61921027 106.22892024 -10.68871921 92.2483241 C-10.73589911 82.42663293 -10.76020707 72.60504539 -10.76747853 62.78324443 C-10.7724433 56.91266095 -10.78760311 51.04250909 -10.82722282 45.17204857 C-10.86399675 39.65045404 -10.87252908 34.1295393 -10.85921669 28.60784531 C-10.85927079 26.57970655 -10.86962843 24.55153837 -10.89096832 22.52351189 C-10.91852634 19.75697353 -10.90919747 16.99293574 -10.89053345 14.22637939 C-10.90732838 13.42131775 -10.92412331 12.61625611 -10.94142717 11.78679866 C-10.89174096 8.84541694 -10.75296125 6.40012667 -8.924187 4.01018637 C-6.16726568 1.55110965 -3.71132953 0.00328213 0 0 Z " fill="#FCFCFD" transform="translate(368.1622772216797,213.37181091308594)"/>
<path d="M0 0 C9.508125 -0.04125 19.01625 -0.0825 28.8125 -0.125 C31.7925708 -0.14320801 34.7726416 -0.16141602 37.84301758 -0.18017578 C40.23518698 -0.18602325 42.62735838 -0.19111821 45.01953125 -0.1953125 C46.23717163 -0.20554443 47.45481201 -0.21577637 48.70935059 -0.22631836 C63.4523497 -0.22929644 79.01731424 2.22116919 90 13 C96.50451814 20.70228107 97.52267001 30.11692563 97.30859375 39.9140625 C96.26528146 50.34718535 92.16054996 57.72962125 84.296875 64.45703125 C75.38646395 70.86865311 61.8405064 73.13742335 51.08642578 73.11352539 C49.35162964 73.11334412 49.35162964 73.11334412 47.58178711 73.11315918 C45.78173218 73.10548523 45.78173218 73.10548523 43.9453125 73.09765625 C42.8308374 73.09664917 41.7163623 73.09564209 40.56811523 73.09460449 C36.42039963 73.08938777 32.27269874 73.07542653 28.125 73.0625 C18.84375 73.041875 9.5625 73.02125 0 73 C0 48.91 0 24.82 0 0 Z " fill="#514B97" transform="translate(393,335)"/>
<path d="M0 0 C8.45625 -0.061875 16.9125 -0.12375 25.625 -0.1875 C29.5842749 -0.22846802 29.5842749 -0.22846802 33.62353516 -0.27026367 C68.2016975 -0.47942946 68.2016975 -0.47942946 80 11 C86.50309066 19.63928033 87.99314461 28.3173291 87 39 C85.25868374 46.74775525 81.01850114 52.8901362 75 58 C64.26638531 64.73736299 54.61439399 66.30620454 42.1875 66.1953125 C41.11435547 66.19329834 40.04121094 66.19128418 38.93554688 66.18920898 C34.95698728 66.17880715 30.97848899 66.15088492 27 66.125 C13.635 66.063125 13.635 66.063125 0 66 C0 44.22 0 22.44 0 0 Z " fill="#514B98" transform="translate(393,242)"/>
<path d="M0 0 C2.36924852 2.36924852 2.58568685 3.70638672 3.32421875 6.9375 C3.54787109 7.91460937 3.77152344 8.89171875 4.00195312 9.8984375 C4.22818359 10.92195312 4.45441406 11.94546875 4.6875 13 C4.92533203 14.02351562 5.16316406 15.04703125 5.40820312 16.1015625 C7.12748095 23.7450381 7.12748095 23.7450381 6 26 C1.33161655 17.75252258 -0.42046129 9.46037907 0 0 Z " fill="#6D6898" transform="translate(639,236)"/>
<path d="M0 0 C2 2 2 2 2.265625 4.86328125 C2.26046875 6.00152344 2.2553125 7.13976562 2.25 8.3125 C2.25515625 9.44300781 2.2603125 10.57351563 2.265625 11.73828125 C2.00706384 14.91326025 1.35265445 17.13902849 0 20 C-0.66 19.34 -1.32 18.68 -2 18 C-1.9765625 15.35546875 -1.9765625 15.35546875 -1.625 12.1875 C-1.3009853 9.15457168 -0.99811631 6.2269847 -1.0234375 3.17578125 C-1 1 -1 1 0 0 Z " fill="#696597" transform="translate(478,266)"/>
<path d="M0 0 C0 0.66 0 1.32 0 2 C-0.78375 2.2475 -1.5675 2.495 -2.375 2.75 C-5.43941457 4.20924503 -5.61725761 5.05014956 -7 8 C-9.83755508 9.85908781 -12.67895374 10.44649229 -16 11 C-12.20918993 6.84233734 -5.90642573 0 0 0 Z " fill="#5D5693" transform="translate(262,120)"/>
<path d="M0 0 C0.33 0 0.66 0 1 0 C1 5.61 1 11.22 1 17 C0.01 17.33 -0.98 17.66 -2 18 C-1.85980308 15.18711295 -1.71312045 12.37483115 -1.5625 9.5625 C-1.52318359 8.76005859 -1.48386719 7.95761719 -1.44335938 7.13085938 C-1.11328125 1.11328125 -1.11328125 1.11328125 0 0 Z " fill="#524E8C" transform="translate(516,262)"/>
<path d="M0 0 C0.33 0.66 0.66 1.32 1 2 C0.195625 2.763125 -0.60875 3.52625 -1.4375 4.3125 C-4.16799024 6.79430898 -4.16799024 6.79430898 -5 10 C-6.62652316 11.70586575 -8.29006566 13.3777546 -10 15 C-10.66 14.67 -11.32 14.34 -12 14 C-8.34161026 8.88863277 -4.55388068 4.33702922 0 0 Z " fill="#ECEBFA" transform="translate(669,348)"/>
<path d="M0 0 C-1.5159375 0.4021875 -1.5159375 0.4021875 -3.0625 0.8125 C-5.73499603 1.56600294 -8.2184767 2.4860844 -10.75 3.625 C-14 5 -14 5 -17 5 C-16.67 4.01 -16.34 3.02 -16 2 C-15.34 2.33 -14.68 2.66 -14 3 C-14 2.34 -14 1.68 -14 1 C-12.23103898 0.63659714 -10.45973374 0.28459117 -8.6875 -0.0625 C-7.70136719 -0.25972656 -6.71523438 -0.45695312 -5.69921875 -0.66015625 C-3 -1 -3 -1 0 0 Z " fill="#5F5A93" transform="translate(693,338)"/>
<path d="M0 0 C0.33 0 0.66 0 1 0 C1.56561146 5.65611463 -0.28608722 9.22642128 -3 14 C-3.99 13.67 -4.98 13.34 -6 13 C-4.02 8.71 -2.04 4.42 0 0 Z " fill="#645E93" transform="translate(216,272)"/>
<path d="M0 0 C0.99 0.33 1.98 0.66 3 1 C1.9015258 2.46262592 0.7959964 3.91995503 -0.3125 5.375 C-0.92738281 6.18710937 -1.54226563 6.99921875 -2.17578125 7.8359375 C-4 10 -4 10 -7 12 C-5.7580393 8.56072421 -4.44259716 5.74792181 -2 3 C-1.34 3 -0.68 3 0 3 C0 2.01 0 1.02 0 0 Z " fill="#58558D" transform="translate(626,508)"/>
<path d="M0 0 C0.66 0 1.32 0 2 0 C2 0.66 2 1.32 2 2 C4.64 1.67 7.28 1.34 10 1 C4.50725702 3.94254088 0.15402446 4.10256707 -6 4 C-5.34 3.34 -4.68 2.68 -4 2 C-2.68 2 -1.36 2 0 2 C0 1.34 0 0.68 0 0 Z " fill="#70699E" transform="translate(446,304)"/>
<path d="M0 0 C2.31 0 4.62 0 7 0 C7 0.99 7 1.98 7 3 C4.69 2.67 2.38 2.34 0 2 C0 1.34 0 0.68 0 0 Z " fill="#66618B" transform="translate(475,317)"/>
<path d="M0 0 C0.33 0.66 0.66 1.32 1 2 C-0.32 3.65 -1.64 5.3 -3 7 C-3.99 6.67 -4.98 6.34 -6 6 C-4 4 -2 2 0 0 Z " fill="#645C93" transform="translate(508,416)"/>
<path d="M0 0 C-0.25 1.875 -0.25 1.875 -1 4 C-3.0625 5.25 -3.0625 5.25 -5 6 C-5 5.34 -5 4.68 -5 4 C-5.66 3.67 -6.32 3.34 -7 3 C-2.25 0 -2.25 0 0 0 Z " fill="#645C9C" transform="translate(494,310)"/>
</svg>
